<svg width="175" height="163" viewBox="0 0 175 163" fill="none" xmlns="http://www.w3.org/2000/svg">
<path fill-rule="evenodd" clip-rule="evenodd" d="M6.25 0H168.75L175 6.25V87.5H162.5V50H12.5V137.5H100V150H6.25L0 143.75V6.25L6.25 0ZM12.5 37.5H162.5V12.5H12.5V37.5ZM75 125V111.325C72.8759 110.553 70.8948 109.434 69.1375 108.012L57.325 114.75L51.075 104L62.7875 97.1625C62.3874 94.9009 62.3874 92.5866 62.7875 90.325L51.075 83.5L57.325 72.75L69.1375 79.5C71.025 78 72.9875 76.8875 75 76.175V62.5H87.5V76.175C89.6404 76.9112 91.6274 78.034 93.3625 79.4875L105.175 72.75L111.425 83.5L99.7125 90.3375C100.111 92.595 100.111 94.905 99.7125 97.1625L111.425 104L105.175 114.75L93.3625 108C91.5856 109.395 89.6095 110.516 87.5 111.325V125H75ZM71.875 93.75C71.875 96.35 72.7875 98.5625 74.6125 100.388C75.4731 101.273 76.5061 101.973 77.6477 102.444C78.7893 102.914 80.0153 103.146 81.25 103.125C82.4847 103.146 83.7107 102.914 84.8523 102.444C85.9939 101.973 87.0269 101.273 87.8875 100.388C88.7731 99.5269 89.4728 98.4939 89.9437 97.3523C90.4145 96.2107 90.6464 94.9847 90.625 93.75C90.6464 92.5153 90.4145 91.2893 89.9437 90.1477C89.4728 89.0061 88.7731 87.9731 87.8875 87.1125C87.0269 86.2269 85.9939 85.5272 84.8523 85.0563C83.7107 84.5855 82.4847 84.3536 81.25 84.375C80.0153 84.3536 78.7893 84.5855 77.6477 85.0563C76.5061 85.5272 75.4731 86.2269 74.6125 87.1125C73.7269 87.9731 73.0272 89.0061 72.5563 90.1477C72.0855 91.2893 71.8536 92.5153 71.875 93.75ZM138.55 162.5V148.825C136.426 148.053 134.445 146.933 132.688 145.512L120.875 152.25L114.625 141.5L126.35 134.662C125.95 132.401 125.95 130.087 126.35 127.825L114.625 121L120.875 110.25L132.688 117C134.575 115.5 136.538 114.387 138.562 113.675V100H151.062V113.675C153.198 114.414 155.18 115.537 156.913 116.988L168.725 110.25L174.975 121L163.262 127.838C163.663 130.095 163.663 132.405 163.262 134.662L174.975 141.5L168.725 152.25L156.913 145.5C155.136 146.895 153.16 148.016 151.05 148.825V162.5H138.55ZM135.425 131.25C135.425 133.85 136.338 136.062 138.163 137.887C139.023 138.773 140.056 139.473 141.198 139.944C142.339 140.415 143.565 140.646 144.8 140.625C146.035 140.646 147.261 140.415 148.402 139.944C149.544 139.473 150.577 138.773 151.438 137.887C152.325 137.028 153.027 135.995 153.5 134.854C153.973 133.712 154.207 132.486 154.188 131.25C154.207 130.014 153.973 128.788 153.5 127.646C153.027 126.505 152.325 125.472 151.438 124.612C150.578 123.728 149.547 123.03 148.408 122.559C147.269 122.088 146.045 121.855 144.812 121.875C143.576 121.852 142.347 122.083 141.203 122.554C140.06 123.025 139.025 123.725 138.163 124.612C137.277 125.473 136.577 126.506 136.106 127.648C135.635 128.789 135.404 130.015 135.425 131.25Z" fill="#634832"/>
</svg>
