<svg width="314" height="343" viewBox="0 0 314 343" fill="none" xmlns="http://www.w3.org/2000/svg">
<path d="M23.3711 327.287C23.582 327.803 24.0098 328.295 24.6543 328.764C24.2441 328.928 23.7285 329.314 23.1074 329.924C22.498 330.533 21.8125 331.078 21.0508 331.559C20.2891 332.039 19.5332 332.426 18.7832 332.719C17.4238 333.258 15.9531 333.527 14.3711 333.527C12.8008 333.527 11.3711 333.34 10.082 332.965C8.80469 332.59 7.74414 332.08 6.90039 331.436C5.24805 330.158 4.42188 328.459 4.42188 326.338V321.469C4.42188 320.93 4.31055 320.531 4.08789 320.273C3.73633 319.84 3.13281 319.412 2.27734 318.99C3.07422 318.627 3.58984 318.305 3.82422 318.023C4.22266 317.566 4.42188 317.051 4.42188 316.477V309.059C4.02344 308.156 3.30273 307.705 2.25977 307.705C1.86133 307.705 1.5332 307.805 1.27539 308.004C1.14648 307.828 1.08203 307.629 1.08203 307.406C1.08203 307.172 1.14648 306.955 1.27539 306.756C1.41602 306.557 1.60352 306.387 1.83789 306.246C2.37695 305.918 2.99219 305.754 3.68359 305.754C4.38672 305.754 5.03125 305.947 5.61719 306.334C6.22656 305.947 6.90625 305.754 7.65625 305.754C8.40625 305.754 9.08594 305.947 9.69531 306.334C10.2812 305.947 10.832 305.754 11.3477 305.754C11.8633 305.754 12.2852 305.801 12.6133 305.895C12.9414 305.977 13.2285 306.094 13.4746 306.246C13.9785 306.551 14.2305 306.932 14.2305 307.389C14.2305 307.623 14.166 307.828 14.0371 308.004C13.7793 307.805 13.4512 307.705 13.0527 307.705C12.0098 307.705 11.2891 308.156 10.8906 309.059V316.477C10.8906 317.051 11.0137 317.479 11.2598 317.76C11.6465 318.217 12.2383 318.627 13.0352 318.99C12.1797 319.412 11.6348 319.758 11.4004 320.027C11.0605 320.449 10.8906 320.93 10.8906 321.469V326.373C10.8906 327.791 11.4238 328.957 12.4902 329.871C13.4746 330.703 14.5938 331.119 15.8477 331.119C17.1602 331.119 18.3262 330.715 19.3457 329.906C20.3887 329.086 20.9102 328.09 20.9102 326.918V321.311C20.9102 320.795 20.7988 320.414 20.5762 320.168C20.2363 319.805 19.6328 319.412 18.7656 318.99C19.5742 318.592 20.0957 318.27 20.3301 318.023C20.7168 317.613 20.9102 317.156 20.9102 316.652V308.83C20.4062 308.08 19.791 307.705 19.0645 307.705C18.3379 307.705 17.8047 307.805 17.4648 308.004C17.3359 307.793 17.2715 307.506 17.2715 307.143C17.2715 306.768 17.4531 306.445 17.8164 306.176C18.1797 305.895 18.6543 305.754 19.2402 305.754C19.8262 305.754 20.3477 305.906 20.8047 306.211C21.2148 305.906 21.6836 305.754 22.2109 305.754C22.75 305.754 23.2246 305.912 23.6348 306.229C24.0918 305.912 24.5957 305.754 25.1465 305.754C25.6973 305.754 26.1367 305.9 26.4648 306.193C26.8047 306.475 26.9746 306.803 26.9746 307.178C26.9746 307.553 26.916 307.828 26.7988 308.004C26.459 307.805 25.9141 307.705 25.1641 307.705C24.4258 307.705 23.8281 308.08 23.3711 308.83V316.652C23.3711 317.168 23.4824 317.543 23.7051 317.777C24.0566 318.141 24.7188 318.545 25.6914 318.99C24.6602 319.494 24.0449 319.846 23.8457 320.045C23.5293 320.361 23.3711 320.783 23.3711 321.311V327.287ZM7.02344 328.342C7.12891 327.709 7.18164 325.682 7.18164 322.26C7.18164 318.826 7.17578 316.729 7.16406 315.967C7.16406 315.193 7.1582 314.572 7.14648 314.104C7.11133 312.721 6.97656 311.889 6.74219 311.607C6.51953 311.314 6.30859 311.121 6.10938 311.027C6.10938 315.105 6.03906 317.426 5.89844 317.988C5.73438 318.457 5.33594 318.791 4.70312 318.99C5.40625 319.236 5.80469 319.535 5.89844 319.887C6.03906 320.449 6.10938 321.662 6.10938 323.525C6.10938 325.389 6.13281 326.49 6.17969 326.83C6.23828 327.17 6.31445 327.445 6.4082 327.656C6.56055 328.031 6.76562 328.26 7.02344 328.342ZM32.1777 341.385C31.6504 341.771 31.041 341.965 30.3496 341.965C29.6582 341.965 29.1426 341.812 28.8027 341.508C28.4746 341.203 28.3105 340.91 28.3105 340.629C28.3105 340.242 28.3926 339.938 28.5566 339.715C28.8145 339.914 29.1426 340.014 29.541 340.014C30.2207 340.014 30.707 339.621 31 338.836V324.984C31 324.445 30.8887 324.047 30.666 323.789C30.3145 323.355 29.7109 322.928 28.8555 322.506C30.2852 321.85 31 320.836 31 319.465V317.619C31 316.623 30.6602 316.084 29.9805 316.002C29.7812 315.979 29.5293 315.967 29.2246 315.967C28.9199 315.967 28.6387 316.066 28.3809 316.266C28.2168 316.043 28.1348 315.814 28.1348 315.58C28.1348 315.334 28.1934 315.064 28.3105 314.771C28.4395 314.467 28.627 314.18 28.873 313.91C29.4941 313.277 30.209 312.961 31.0176 312.961C31.8379 312.961 32.5176 313.09 33.0566 313.348C33.7012 312.621 34.3926 312.258 35.1309 312.258C36.3379 312.258 36.9414 312.891 36.9414 314.156V314.279C37.8672 313.354 39.0742 312.727 40.5625 312.398C41.0195 312.305 41.6055 312.258 42.3203 312.258C43.0469 312.258 43.8086 312.363 44.6055 312.574C45.4023 312.785 46.0938 313.16 46.6797 313.699C47.8516 314.777 48.5723 316.699 48.8418 319.465C48.959 320.895 49.6738 321.908 50.9863 322.506C50.1543 322.916 49.627 323.262 49.4043 323.543C49.1113 323.941 48.9238 324.422 48.8418 324.984C48.502 327.809 47.7754 329.895 46.6621 331.242C45.4434 332.707 43.6797 333.439 41.3711 333.439C39.5898 333.439 38.1133 332.971 36.9414 332.033V338.801C37.2344 339.609 37.7207 340.014 38.4004 340.014C38.7988 340.014 39.127 339.914 39.3848 339.715C39.5488 339.938 39.6309 340.213 39.6309 340.541C39.6309 340.881 39.4609 341.203 39.1211 341.508C38.793 341.812 38.2891 341.965 37.6094 341.965C36.9297 341.965 36.3145 341.771 35.7637 341.385C35.2949 341.771 34.709 341.965 34.0059 341.965C33.3145 341.965 32.7051 341.771 32.1777 341.385ZM36.9238 327.428C36.9238 328.377 37.2402 329.191 37.873 329.871C38.4941 330.539 39.1914 330.873 39.9648 330.873C41.9219 330.873 42.9004 329.467 42.9004 326.654V318.955C42.9004 317.666 42.6719 316.658 42.2148 315.932C41.7578 315.193 41.1133 314.824 40.2812 314.824C38.793 314.824 37.7676 315.645 37.2051 317.285C37.0176 317.848 36.9238 318.521 36.9238 319.307V327.428ZM44.5879 328.342C45.1738 328.119 45.502 327.352 45.5723 326.039C45.6309 324.727 45.6602 323.754 45.6602 323.121C45.6602 322.477 45.6543 321.943 45.6426 321.521C45.6426 321.088 45.6367 320.643 45.625 320.186C45.5781 318.475 45.4434 317.479 45.2207 317.197C44.998 316.916 44.7871 316.729 44.5879 316.635V328.342ZM32.6523 333.457C33.2031 333.082 33.5137 332.297 33.584 331.102C33.6074 330.422 33.625 329.637 33.6367 328.746C33.6602 326.742 33.6719 325.471 33.6719 324.932C33.6836 324.381 33.6895 323.912 33.6895 323.525V322.137C33.6895 321.949 33.6836 321.721 33.6719 321.451C33.6719 321.17 33.666 320.871 33.6543 320.555C33.6543 320.227 33.6426 319.91 33.6191 319.605C33.5605 318.445 33.4316 317.695 33.2324 317.355C33.0449 317.004 32.8516 316.764 32.6523 316.635V317.689C32.6523 319.729 32.6055 320.924 32.5117 321.275C32.4297 321.615 32.2891 321.873 32.0898 322.049C31.9023 322.225 31.6211 322.377 31.2461 322.506C31.9492 322.752 32.3477 323.045 32.4414 323.385C32.582 323.9 32.6523 325.342 32.6523 327.709V333.457ZM56.5938 332.789C56.0547 333.164 55.4395 333.352 54.748 333.352C54.0684 333.352 53.5586 333.199 53.2188 332.895C52.8906 332.59 52.7266 332.297 52.7266 332.016C52.7266 331.629 52.8086 331.324 52.9727 331.102C53.2305 331.301 53.5586 331.4 53.957 331.4C54.6367 331.4 55.123 331.008 55.416 330.223V324.809C55.416 324.293 55.3105 323.918 55.0996 323.684C54.7598 323.332 54.1504 322.939 53.2715 322.506C54.0918 322.131 54.6191 321.826 54.8535 321.592C55.2285 321.205 55.416 320.73 55.416 320.168V310.236C55.416 308.9 54.8711 308.232 53.7812 308.232C53.3828 308.232 53.0547 308.332 52.7969 308.531C52.6328 308.309 52.5508 308.08 52.5508 307.846C52.5508 307.6 52.6094 307.365 52.7266 307.143C52.8555 306.92 53.0488 306.715 53.3066 306.527C53.8574 306.129 54.5547 305.93 55.3984 305.93C56.2422 305.93 56.8984 305.982 57.3672 306.088C58.0117 305.279 58.7383 304.875 59.5469 304.875C60.7188 304.875 61.3047 305.508 61.3047 306.773V320.168C61.3047 320.73 61.4277 321.135 61.6738 321.381C62.0371 321.756 62.6289 322.131 63.4492 322.506C62.5703 322.939 62.0195 323.268 61.7969 323.49C61.4688 323.854 61.3047 324.293 61.3047 324.809V330.223C61.5859 331.008 62.0723 331.4 62.7637 331.4C63.1621 331.4 63.4902 331.301 63.748 331.102C63.9121 331.324 63.9941 331.605 63.9941 331.945C63.9941 332.273 63.8242 332.59 63.4844 332.895C63.1562 333.199 62.6582 333.352 61.9902 333.352C61.3223 333.352 60.7012 333.164 60.127 332.789C59.6465 333.164 59.0723 333.352 58.4043 333.352C57.748 333.352 57.1445 333.164 56.5938 332.789ZM57.1035 328.324C57.6309 327.984 57.9414 327.24 58.0352 326.092C58.0703 325.588 58.0938 325.025 58.1055 324.404C58.1172 323.783 58.123 323.344 58.123 323.086C58.1348 322.816 58.1406 322.617 58.1406 322.488V320.906C58.1406 320.473 58.1348 319.98 58.123 319.43V317.707C58.0879 314.602 58.0293 312.873 57.9473 312.521C57.7832 311.783 57.502 311.285 57.1035 311.027V316.951C57.1035 319.377 57.0742 320.73 57.0156 321.012C56.9688 321.281 56.9277 321.48 56.8926 321.609C56.7871 321.973 56.3887 322.271 55.6973 322.506C56.4004 322.752 56.7988 323.045 56.8926 323.385C57.0332 323.947 57.1035 325.213 57.1035 327.182V328.324ZM70.1465 331.031C69.4082 330.281 68.8223 329.391 68.3887 328.359C67.9668 327.328 67.709 326.443 67.6152 325.705C67.5215 324.967 67.4395 324.492 67.3691 324.281C67.3105 324.07 67.2051 323.871 67.0527 323.684C66.748 323.297 66.1914 322.904 65.3828 322.506C66.4023 322.049 67.0527 321.316 67.334 320.309C67.416 320.027 67.4805 319.746 67.5273 319.465C67.832 317.367 68.8457 315.615 70.5684 314.209C72.291 312.791 74.3008 312.082 76.5977 312.082C78.9883 312.082 81.0449 312.797 82.7676 314.227C84.4434 315.621 85.4336 317.367 85.7383 319.465C85.8438 320.203 86.002 320.742 86.2129 321.082C86.6113 321.703 87.168 322.178 87.8828 322.506C87.0859 322.893 86.5703 323.232 86.3359 323.525C86.0195 323.936 85.8203 324.422 85.7383 324.984C85.3633 327.75 84.4023 329.854 82.8555 331.295C81.3086 332.725 79.2461 333.439 76.668 333.439C73.9023 333.439 71.7285 332.637 70.1465 331.031ZM79.6211 318.955C79.6211 316.025 78.625 314.561 76.6328 314.561C74.6406 314.561 73.6445 316.025 73.6445 318.955V326.742C73.6445 329.555 74.6348 330.961 76.6152 330.961C78.6191 330.961 79.6211 329.555 79.6211 326.742V318.955ZM81.3086 328.342C81.8945 328.119 82.2168 327.352 82.2754 326.039C82.3457 324.727 82.3809 323.754 82.3809 323.121C82.3809 322.477 82.375 321.943 82.3633 321.521C82.3633 321.088 82.3574 320.643 82.3457 320.186C82.2988 318.475 82.1641 317.479 81.9414 317.197C81.7188 316.916 81.5078 316.729 81.3086 316.635V328.342ZM70.7793 328.342C70.9434 328.213 71.0254 328.066 71.0254 327.902C71.0254 327.645 70.9727 327.316 70.8672 326.918C70.3867 325.078 70.1465 323.801 70.1465 323.086C70.1465 322.359 70.1699 321.797 70.2168 321.398C70.2637 320.988 70.3223 320.578 70.3926 320.168C70.5449 319.371 70.7031 318.668 70.8672 318.059C70.9727 317.66 71.0254 317.391 71.0254 317.25C71.0254 316.969 70.9434 316.764 70.7793 316.635C70.2871 317.221 69.9121 318.006 69.6543 318.99C69.3965 319.975 69.1855 320.842 69.0215 321.592C68.9629 321.908 68.6172 322.213 67.9844 322.506C68.6172 322.799 68.9629 323.092 69.0215 323.385C69.4551 325.365 69.8125 326.625 70.0938 327.164C70.375 327.703 70.6035 328.096 70.7793 328.342ZM102.596 331.33C101.529 332.736 99.9297 333.439 97.7969 333.439C95.1953 333.439 93.2441 332.66 91.9434 331.102C91.3809 330.434 90.9941 329.689 90.7832 328.869C90.666 328.377 90.4609 328.002 90.168 327.744C89.875 327.475 89.5117 327.234 89.0781 327.023C89.9219 326.637 90.5254 325.91 90.8887 324.844C91.2754 323.719 91.9199 322.904 92.8223 322.4C93.7949 321.873 94.8672 321.598 96.0391 321.574C97.2109 321.539 98.0781 321.498 98.6406 321.451C99.2031 321.404 99.7012 321.328 100.135 321.223C100.943 321.035 101.576 320.689 102.033 320.186V317.549C102.033 316.389 101.793 315.539 101.312 315C100.844 314.461 100.123 314.191 99.1504 314.191C98.1895 314.191 97.4746 314.373 97.0059 314.736C96.5488 315.088 96.3203 315.562 96.3203 316.16C96.3203 317.074 96.7891 317.52 97.7266 317.496C97.5391 318.41 97.0469 318.867 96.25 318.867C96.0156 318.867 95.7871 318.826 95.5645 318.744V318.797C95.5645 319.102 95.7051 319.295 95.9863 319.377C95.6934 319.822 95.2012 320.039 94.5098 320.027C93.8184 320.016 93.2793 319.646 92.8926 318.92C92.7168 318.967 92.5117 318.99 92.2773 318.99C92.0547 318.99 91.8027 318.914 91.5215 318.762C91.252 318.609 91.0352 318.398 90.8711 318.129C91.457 317.777 91.8145 317.232 91.9434 316.494C92.084 315.592 92.8047 314.678 94.1055 313.752C95.6758 312.639 97.6797 312.082 100.117 312.082C104.16 312.082 106.627 313.324 107.518 315.809C107.811 316.641 107.957 317.625 107.957 318.762V320.186C107.957 320.76 108.098 321.229 108.379 321.592C108.672 321.955 109.164 322.254 109.855 322.488C109.117 322.828 108.643 323.133 108.432 323.402C108.115 323.812 107.957 324.281 107.957 324.809V330.082C108.297 330.961 108.783 331.4 109.416 331.4C109.814 331.4 110.143 331.301 110.4 331.102C110.564 331.324 110.646 331.605 110.646 331.945C110.646 332.273 110.477 332.59 110.137 332.895C109.809 333.199 109.311 333.352 108.643 333.352C107.975 333.352 107.354 333.164 106.779 332.789C106.275 333.164 105.824 333.352 105.426 333.352C105.039 333.352 104.699 333.311 104.406 333.229C104.125 333.158 103.861 333.041 103.615 332.877C103.064 332.514 102.725 331.998 102.596 331.33ZM103.703 328.342C104.383 328.072 104.74 326.777 104.775 324.457C104.775 323.965 104.775 323.402 104.775 322.77C104.775 322.137 104.77 321.598 104.758 321.152C104.758 320.695 104.752 320.262 104.74 319.852C104.693 318.375 104.559 317.496 104.336 317.215C104.113 316.922 103.902 316.729 103.703 316.635V328.342ZM97.2168 327.094C97.2168 327.586 97.2695 328.066 97.375 328.535C97.4805 329.004 97.6387 329.414 97.8496 329.766C98.3184 330.504 98.9805 330.873 99.8359 330.873C100.48 330.873 101.014 330.609 101.436 330.082C101.834 329.566 102.033 328.904 102.033 328.096V322.365C101.283 322.799 100.322 323.098 99.1504 323.262C97.8613 323.461 97.2168 324.738 97.2168 327.094ZM94.5801 331.049C94.6973 330.967 94.7559 330.861 94.7559 330.732C94.7559 330.557 94.6738 330.311 94.5098 329.994C93.9238 328.916 93.6309 328.031 93.6309 327.34C93.6309 326.648 93.6543 326.15 93.7012 325.846C93.7598 325.541 93.8301 325.283 93.9121 325.072C94.0059 324.85 94.1055 324.656 94.2109 324.492C94.3281 324.328 94.4277 324.182 94.5098 324.053C94.6621 323.783 94.7383 323.602 94.7383 323.508C94.7383 323.402 94.6855 323.314 94.5801 323.244C94.0996 323.467 93.748 323.73 93.5254 324.035C93.127 324.574 92.834 325.271 92.6465 326.127C92.5996 326.373 92.1895 326.672 91.416 327.023C92.166 327.363 92.5762 327.662 92.6465 327.92C93.0449 329.314 93.6895 330.357 94.5801 331.049ZM129.297 333.352C128.102 333.352 127.17 332.707 126.502 331.418C125.67 332.379 124.557 333.012 123.162 333.316C122.752 333.398 122.348 333.439 121.949 333.439C119.488 333.439 117.578 332.66 116.219 331.102C114.977 329.66 114.279 327.621 114.127 324.984C114.104 324.469 113.986 324.076 113.775 323.807C113.424 323.361 112.826 322.934 111.982 322.523C113.365 321.891 114.086 320.918 114.145 319.605C114.203 318.293 114.432 317.174 114.83 316.248C115.24 315.311 115.785 314.543 116.465 313.945C117.766 312.82 119.582 312.258 121.914 312.258C123.191 312.258 124.299 312.586 125.236 313.242C125.553 313.465 125.822 313.723 126.045 314.016V310.236C126.045 308.9 125.5 308.232 124.41 308.232C124.012 308.232 123.684 308.332 123.426 308.531C123.262 308.309 123.18 308.08 123.18 307.846C123.18 307.6 123.238 307.365 123.355 307.143C123.484 306.92 123.678 306.715 123.936 306.527C124.486 306.129 125.184 305.93 126.027 305.93C126.871 305.93 127.527 305.982 127.996 306.088C128.641 305.279 129.367 304.875 130.176 304.875C131.383 304.875 131.986 305.508 131.986 306.773V320.186C131.986 321.076 132.701 321.85 134.131 322.506C132.701 323.15 131.986 323.918 131.986 324.809V330.082C132.326 330.961 132.812 331.4 133.445 331.4C133.844 331.4 134.172 331.301 134.43 331.102C134.594 331.324 134.676 331.605 134.676 331.945C134.676 332.273 134.506 332.59 134.166 332.895C133.838 333.199 133.34 333.352 132.672 333.352C132.004 333.352 131.383 333.164 130.809 332.789C130.305 333.164 129.801 333.352 129.297 333.352ZM127.732 328.342C128.318 328.119 128.635 327.422 128.682 326.25C128.693 325.98 128.699 325.652 128.699 325.266C128.711 324.867 128.723 324.428 128.734 323.947C128.746 323.467 128.752 322.98 128.752 322.488L128.787 321.082C128.787 320.625 128.787 320.227 128.787 319.887C128.799 319.535 128.805 319.26 128.805 319.061V318.797C128.805 318.762 128.799 318.598 128.787 318.305C128.787 318 128.781 317.631 128.77 317.197C128.77 316.752 128.764 316.277 128.752 315.773L128.717 314.297C128.693 313.219 128.652 312.533 128.594 312.24C128.5 311.654 128.213 311.25 127.732 311.027V328.342ZM122.881 314.824C121.006 314.824 120.068 316.201 120.068 318.955V326.654C120.068 328.799 120.777 330.129 122.195 330.645C122.594 330.797 122.986 330.873 123.373 330.873C123.771 330.873 124.129 330.797 124.445 330.645C124.773 330.48 125.055 330.27 125.289 330.012C125.793 329.438 126.045 328.752 126.045 327.955V318.955C126.045 316.799 125.389 315.492 124.076 315.035C123.689 314.895 123.291 314.824 122.881 314.824ZM117.203 328.342C117.367 328.213 117.449 328.066 117.449 327.902C117.449 327.645 117.396 327.316 117.291 326.918C116.811 325.078 116.57 323.807 116.57 323.104C116.57 322.389 116.594 321.826 116.641 321.416C116.688 321.006 116.752 320.602 116.834 320.203C116.986 319.359 117.139 318.645 117.291 318.059C117.396 317.66 117.449 317.391 117.449 317.25C117.449 316.969 117.367 316.764 117.203 316.635C116.711 317.221 116.336 318.012 116.078 319.008C115.82 320.004 115.609 320.877 115.445 321.627C115.387 321.932 115.041 322.23 114.408 322.523C115.041 322.816 115.387 323.115 115.445 323.42C115.879 325.4 116.236 326.654 116.518 327.182C116.799 327.709 117.027 328.096 117.203 328.342ZM157.932 331.33C156.865 332.736 155.266 333.439 153.133 333.439C150.531 333.439 148.58 332.66 147.279 331.102C146.717 330.434 146.33 329.689 146.119 328.869C146.002 328.377 145.797 328.002 145.504 327.744C145.211 327.475 144.848 327.234 144.414 327.023C145.258 326.637 145.861 325.91 146.225 324.844C146.611 323.719 147.256 322.904 148.158 322.4C149.131 321.873 150.203 321.598 151.375 321.574C152.547 321.539 153.414 321.498 153.977 321.451C154.539 321.404 155.037 321.328 155.471 321.223C156.279 321.035 156.912 320.689 157.369 320.186V317.549C157.369 316.389 157.129 315.539 156.648 315C156.18 314.461 155.459 314.191 154.486 314.191C153.525 314.191 152.811 314.373 152.342 314.736C151.885 315.088 151.656 315.562 151.656 316.16C151.656 317.074 152.125 317.52 153.062 317.496C152.875 318.41 152.383 318.867 151.586 318.867C151.352 318.867 151.123 318.826 150.9 318.744V318.797C150.9 319.102 151.041 319.295 151.322 319.377C151.029 319.822 150.537 320.039 149.846 320.027C149.154 320.016 148.615 319.646 148.229 318.92C148.053 318.967 147.848 318.99 147.613 318.99C147.391 318.99 147.139 318.914 146.857 318.762C146.588 318.609 146.371 318.398 146.207 318.129C146.793 317.777 147.15 317.232 147.279 316.494C147.42 315.592 148.141 314.678 149.441 313.752C151.012 312.639 153.016 312.082 155.453 312.082C159.496 312.082 161.963 313.324 162.854 315.809C163.146 316.641 163.293 317.625 163.293 318.762V320.186C163.293 320.76 163.434 321.229 163.715 321.592C164.008 321.955 164.5 322.254 165.191 322.488C164.453 322.828 163.979 323.133 163.768 323.402C163.451 323.812 163.293 324.281 163.293 324.809V330.082C163.633 330.961 164.119 331.4 164.752 331.4C165.15 331.4 165.479 331.301 165.736 331.102C165.9 331.324 165.982 331.605 165.982 331.945C165.982 332.273 165.812 332.59 165.473 332.895C165.145 333.199 164.646 333.352 163.979 333.352C163.311 333.352 162.689 333.164 162.115 332.789C161.611 333.164 161.16 333.352 160.762 333.352C160.375 333.352 160.035 333.311 159.742 333.229C159.461 333.158 159.197 333.041 158.951 332.877C158.4 332.514 158.061 331.998 157.932 331.33ZM159.039 328.342C159.719 328.072 160.076 326.777 160.111 324.457C160.111 323.965 160.111 323.402 160.111 322.77C160.111 322.137 160.105 321.598 160.094 321.152C160.094 320.695 160.088 320.262 160.076 319.852C160.029 318.375 159.895 317.496 159.672 317.215C159.449 316.922 159.238 316.729 159.039 316.635V328.342ZM152.553 327.094C152.553 327.586 152.605 328.066 152.711 328.535C152.816 329.004 152.975 329.414 153.186 329.766C153.654 330.504 154.316 330.873 155.172 330.873C155.816 330.873 156.35 330.609 156.771 330.082C157.17 329.566 157.369 328.904 157.369 328.096V322.365C156.619 322.799 155.658 323.098 154.486 323.262C153.197 323.461 152.553 324.738 152.553 327.094ZM149.916 331.049C150.033 330.967 150.092 330.861 150.092 330.732C150.092 330.557 150.01 330.311 149.846 329.994C149.26 328.916 148.967 328.031 148.967 327.34C148.967 326.648 148.99 326.15 149.037 325.846C149.096 325.541 149.166 325.283 149.248 325.072C149.342 324.85 149.441 324.656 149.547 324.492C149.664 324.328 149.764 324.182 149.846 324.053C149.998 323.783 150.074 323.602 150.074 323.508C150.074 323.402 150.021 323.314 149.916 323.244C149.436 323.467 149.084 323.73 148.861 324.035C148.463 324.574 148.17 325.271 147.982 326.127C147.936 326.373 147.525 326.672 146.752 327.023C147.502 327.363 147.912 327.662 147.982 327.92C148.381 329.314 149.025 330.357 149.916 331.049ZM171.502 332.789C170.963 333.164 170.348 333.352 169.656 333.352C168.965 333.352 168.461 333.193 168.145 332.877C167.84 332.549 167.688 332.238 167.688 331.945C167.688 331.559 167.752 331.277 167.881 331.102C168.139 331.301 168.467 331.4 168.865 331.4C169.615 331.4 170.102 331.037 170.324 330.311V324.844C170.324 324.328 170.213 323.953 169.99 323.719C169.65 323.332 169.047 322.928 168.18 322.506C169 322.131 169.521 321.832 169.744 321.609C170.131 321.223 170.324 320.748 170.324 320.186V317.619C170.324 316.623 169.984 316.084 169.305 316.002C169.105 315.979 168.854 315.967 168.549 315.967C168.244 315.967 167.963 316.066 167.705 316.266C167.541 316.043 167.459 315.814 167.459 315.58C167.459 315.334 167.518 315.064 167.635 314.771C167.764 314.467 167.951 314.18 168.197 313.91C168.818 313.277 169.533 312.961 170.342 312.961C171.162 312.961 171.842 313.09 172.381 313.348C173.025 312.621 173.682 312.258 174.35 312.258C175.018 312.258 175.48 312.416 175.738 312.732C175.996 313.037 176.125 313.512 176.125 314.156V315.809C176.734 314.719 177.566 313.857 178.621 313.225C179.676 312.58 180.795 312.258 181.979 312.258C183.162 312.258 184.111 312.416 184.826 312.732C185.553 313.037 186.15 313.477 186.619 314.051C187.533 315.188 187.99 316.84 187.99 319.008V320.168C187.99 320.73 188.113 321.135 188.359 321.381C188.723 321.756 189.314 322.131 190.135 322.506C189.256 322.939 188.705 323.268 188.482 323.49C188.154 323.854 187.99 324.293 187.99 324.809V330.311C188.213 331.037 188.699 331.4 189.449 331.4C189.848 331.4 190.176 331.301 190.434 331.102C190.562 331.277 190.627 331.535 190.627 331.875C190.627 332.215 190.469 332.549 190.152 332.877C189.848 333.193 189.373 333.352 188.729 333.352C188.084 333.352 187.498 333.17 186.971 332.807C186.502 333.17 185.951 333.352 185.318 333.352C184.697 333.352 184.141 333.176 183.648 332.824C183.133 333.176 182.582 333.352 181.996 333.352C181.41 333.352 180.947 333.205 180.607 332.912C180.268 332.619 180.098 332.197 180.098 331.646C180.098 331.389 180.186 331.184 180.361 331.031C180.631 331.242 180.9 331.348 181.17 331.348C181.686 331.348 182.055 331.061 182.277 330.486V320.01C182.277 317.736 181.721 316.418 180.607 316.055C180.244 315.938 179.852 315.879 179.43 315.879C179.008 315.879 178.615 315.967 178.252 316.143C177.889 316.307 177.561 316.541 177.268 316.846C176.623 317.525 176.242 318.334 176.125 319.271V330.486C176.348 331.061 176.717 331.348 177.232 331.348C177.502 331.348 177.771 331.242 178.041 331.031C178.217 331.184 178.305 331.465 178.305 331.875C178.305 332.273 178.135 332.619 177.795 332.912C177.455 333.205 177.004 333.352 176.441 333.352C175.891 333.352 175.387 333.176 174.93 332.824C174.484 333.176 173.939 333.352 173.295 333.352C172.65 333.352 172.053 333.164 171.502 332.789ZM183.965 328.342C184.551 328.119 184.873 327.352 184.932 326.039C185.002 324.727 185.037 323.49 185.037 322.33C185.037 321.17 184.99 320.215 184.896 319.465C184.803 318.703 184.668 318.111 184.492 317.689C184.316 317.256 184.105 316.945 183.859 316.758C183.625 316.559 183.367 316.389 183.086 316.248C183.531 317.303 183.789 318.264 183.859 319.131C183.93 319.998 183.965 320.836 183.965 321.645V328.342ZM173.014 324.457C173.025 324.07 173.031 323.748 173.031 323.49C173.043 323.221 173.049 323.004 173.049 322.84C173.049 322.676 173.049 322.512 173.049 322.348C173.049 322.172 173.043 321.943 173.031 321.662C173.031 321.381 173.025 321.07 173.014 320.73C173.014 320.391 173.002 320.057 172.979 319.729C172.943 318.92 172.891 318.363 172.82 318.059C172.68 317.379 172.41 316.91 172.012 316.652V317.795C172.012 319.764 171.965 320.924 171.871 321.275C171.789 321.615 171.648 321.873 171.449 322.049C171.262 322.225 170.98 322.377 170.605 322.506C171.309 322.752 171.707 323.045 171.801 323.385C171.941 323.947 172.012 325.213 172.012 327.182V328.324C172.551 327.973 172.861 327.258 172.943 326.18C172.99 325.418 173.014 324.844 173.014 324.457ZM206.359 309.744C205.762 309.744 205.182 309.586 204.619 309.27C204.068 308.953 203.646 308.531 203.354 308.004C203.037 307.465 202.615 307.055 202.088 306.773C201.924 306.691 201.736 306.604 201.525 306.51L202.123 306.141C202.686 305.789 203.102 305.361 203.371 304.857C203.641 304.354 204.045 303.961 204.584 303.68C205.135 303.387 205.727 303.24 206.359 303.24C207.672 303.24 208.621 303.791 209.207 304.893C209.605 305.619 210.221 306.158 211.053 306.51C210.877 306.615 210.701 306.709 210.525 306.791C210.361 306.873 210.203 306.967 210.051 307.072C209.711 307.307 209.406 307.652 209.137 308.109C208.879 308.566 208.498 308.953 207.994 309.27C207.502 309.586 206.957 309.744 206.359 309.744ZM205.428 307.6C205.357 307.471 205.299 307.324 205.252 307.16C205.217 306.984 205.199 306.68 205.199 306.246C205.199 305.812 205.422 305.262 205.867 304.594C205.434 304.594 205.129 304.676 204.953 304.84C204.777 304.992 204.643 305.127 204.549 305.244C204.467 305.35 204.391 305.461 204.32 305.578C204.262 305.684 204.186 305.801 204.092 305.93C203.869 306.246 203.688 306.439 203.547 306.51C203.734 306.615 203.904 306.785 204.057 307.02C204.221 307.242 204.408 307.477 204.619 307.723C204.936 308.109 205.352 308.303 205.867 308.303C205.797 308.174 205.721 308.057 205.639 307.951C205.568 307.834 205.498 307.717 205.428 307.6ZM204.602 332.789C204.062 333.164 203.447 333.352 202.756 333.352C202.076 333.352 201.566 333.199 201.227 332.895C200.898 332.59 200.734 332.297 200.734 332.016C200.734 331.629 200.816 331.324 200.98 331.102C201.238 331.301 201.619 331.4 202.123 331.4C202.627 331.4 203.061 331.072 203.424 330.416V324.809C203.424 324.293 203.318 323.918 203.107 323.684C202.768 323.332 202.158 322.939 201.279 322.506C202.1 322.131 202.621 321.832 202.844 321.609C203.23 321.223 203.424 320.748 203.424 320.186V317.619C203.424 316.623 203.084 316.084 202.404 316.002C202.205 315.979 201.953 315.967 201.648 315.967C201.344 315.967 201.062 316.066 200.805 316.266C200.641 316.043 200.559 315.814 200.559 315.58C200.559 315.334 200.617 315.064 200.734 314.771C200.863 314.467 201.057 314.18 201.314 313.91C201.924 313.277 202.627 312.961 203.424 312.961C204.221 312.961 204.941 313.102 205.586 313.383C206.16 312.633 206.816 312.258 207.555 312.258C208.762 312.258 209.365 312.891 209.365 314.156V320.186C209.365 320.748 209.488 321.152 209.734 321.398C210.098 321.762 210.689 322.131 211.51 322.506C210.631 322.939 210.08 323.268 209.857 323.49C209.529 323.854 209.365 324.293 209.365 324.809V330.469C209.752 331.09 210.191 331.4 210.684 331.4C211.176 331.4 211.551 331.301 211.809 331.102C211.973 331.324 212.055 331.605 212.055 331.945C212.055 332.273 211.885 332.59 211.545 332.895C211.217 333.199 210.719 333.352 210.051 333.352C209.383 333.352 208.762 333.164 208.188 332.789C207.707 333.164 207.127 333.352 206.447 333.352C205.768 333.352 205.152 333.164 204.602 332.789ZM206.113 324.457C206.125 324.059 206.131 323.725 206.131 323.455C206.143 323.186 206.148 322.969 206.148 322.805V322.33C206.148 322.154 206.143 321.926 206.131 321.645C206.131 321.363 206.125 321.053 206.113 320.713C206.113 320.373 206.107 320.039 206.096 319.711C206.049 318.902 205.99 318.346 205.92 318.041C205.779 317.361 205.51 316.893 205.111 316.635V317.777C205.111 319.758 205.064 320.924 204.971 321.275C204.889 321.615 204.748 321.873 204.549 322.049C204.361 322.213 204.08 322.359 203.705 322.488C204.408 322.734 204.807 323.033 204.9 323.385C205.041 323.947 205.111 325.219 205.111 327.199V328.342C205.65 327.99 205.955 327.27 206.025 326.18C206.084 325.43 206.113 324.855 206.113 324.457ZM217.416 332.789C216.877 333.164 216.262 333.352 215.57 333.352C214.879 333.352 214.375 333.193 214.059 332.877C213.754 332.549 213.602 332.238 213.602 331.945C213.602 331.559 213.666 331.277 213.795 331.102C214.053 331.301 214.381 331.4 214.779 331.4C215.529 331.4 216.016 331.037 216.238 330.311V324.826C216.238 324.311 216.127 323.936 215.904 323.701C215.588 323.338 214.984 322.939 214.094 322.506C214.914 322.131 215.436 321.832 215.658 321.609C216.045 321.223 216.238 320.748 216.238 320.186V317.619C216.238 316.623 215.898 316.084 215.219 316.002C215.02 315.979 214.768 315.967 214.463 315.967C214.158 315.967 213.877 316.066 213.619 316.266C213.455 316.043 213.373 315.814 213.373 315.58C213.373 315.334 213.432 315.064 213.549 314.771C213.678 314.467 213.865 314.18 214.111 313.91C214.732 313.277 215.447 312.961 216.256 312.961C217.076 312.961 217.756 313.09 218.295 313.348C218.939 312.621 219.631 312.258 220.369 312.258C221.576 312.258 222.18 312.891 222.18 314.156L222.162 315.615C223.146 314.045 224.518 313.008 226.275 312.504C226.85 312.34 227.441 312.258 228.051 312.258C229.434 312.258 230.582 312.592 231.496 313.26C232.41 313.928 233.066 314.877 233.465 316.107C234.344 314.291 235.768 313.102 237.736 312.539C238.381 312.352 239.107 312.258 239.916 312.258C240.736 312.258 241.504 312.416 242.219 312.732C242.945 313.037 243.561 313.477 244.064 314.051C245.084 315.246 245.594 316.898 245.594 319.008L245.541 320.186C245.541 320.748 245.664 321.152 245.91 321.398C246.273 321.762 246.865 322.131 247.686 322.506C246.795 322.939 246.244 323.273 246.033 323.508C245.705 323.871 245.541 324.311 245.541 324.826V330.311C245.764 331.037 246.25 331.4 247 331.4C247.281 331.4 247.551 331.301 247.809 331.102C247.879 331.195 247.955 331.289 248.037 331.383C248.131 331.465 248.178 331.652 248.178 331.945C248.178 332.238 248.02 332.549 247.703 332.877C247.398 333.193 246.906 333.352 246.227 333.352C245.559 333.352 244.938 333.164 244.363 332.789C243.836 333.164 243.244 333.352 242.588 333.352C241.943 333.352 241.375 333.176 240.883 332.824C240.426 333.176 239.91 333.352 239.336 333.352C238.773 333.352 238.322 333.205 237.982 332.912C237.643 332.619 237.473 332.197 237.473 331.646C237.473 331.389 237.561 331.184 237.736 331.031C238.006 331.242 238.275 331.348 238.545 331.348C239.061 331.348 239.43 331.061 239.652 330.486V320.01C239.652 317.256 238.65 315.879 236.646 315.879C236.072 315.879 235.51 316.213 234.959 316.881C234.408 317.537 234.051 318.334 233.887 319.271L233.834 330.486C234.057 331.061 234.426 331.348 234.941 331.348C235.211 331.348 235.48 331.242 235.75 331.031C235.926 331.184 236.014 331.465 236.014 331.875C236.014 332.273 235.844 332.619 235.504 332.912C235.164 333.205 234.707 333.352 234.133 333.352C233.559 333.352 233.043 333.176 232.586 332.824C232.082 333.176 231.508 333.352 230.863 333.352C230.23 333.352 229.668 333.176 229.176 332.824C228.719 333.176 228.203 333.352 227.629 333.352C227.066 333.352 226.615 333.205 226.275 332.912C225.936 332.619 225.766 332.197 225.766 331.646C225.766 331.389 225.854 331.184 226.029 331.031C226.299 331.242 226.568 331.348 226.838 331.348C227.354 331.348 227.723 331.061 227.945 330.486V320.01C227.945 317.818 227.412 316.512 226.346 316.09C226.006 315.949 225.631 315.879 225.221 315.879C224.436 315.879 223.756 316.219 223.182 316.898C222.643 317.531 222.303 318.328 222.162 319.289L222.127 330.486C222.35 331.061 222.719 331.348 223.234 331.348C223.504 331.348 223.773 331.242 224.043 331.031C224.254 331.207 224.359 331.494 224.359 331.893C224.359 332.279 224.178 332.619 223.814 332.912C223.463 333.205 222.994 333.352 222.408 333.352C221.834 333.352 221.324 333.182 220.879 332.842C220.41 333.182 219.854 333.352 219.209 333.352C218.564 333.352 217.967 333.164 217.416 332.789ZM240.812 316.635C241.164 317.49 241.34 319.16 241.34 321.645V328.342C241.926 328.119 242.248 327.352 242.307 326.039C242.377 324.727 242.412 323.566 242.412 322.559C242.412 321.539 242.383 320.689 242.324 320.01C242.266 319.33 242.172 318.762 242.043 318.305C241.809 317.484 241.398 316.928 240.812 316.635ZM229.105 316.635C229.457 317.49 229.633 319.16 229.633 321.645V328.342C230.219 328.119 230.541 327.352 230.6 326.039C230.67 324.727 230.705 323.566 230.705 322.559C230.705 321.539 230.676 320.689 230.617 320.01C230.559 319.33 230.465 318.762 230.336 318.305C230.102 317.484 229.691 316.928 229.105 316.635ZM217.926 328.342C218.477 327.99 218.787 327.258 218.857 326.145C218.904 325.301 218.928 324.545 218.928 323.877V321.645C218.928 319.91 218.881 318.797 218.787 318.305C218.623 317.461 218.336 316.904 217.926 316.635V317.777C217.926 319.758 217.879 320.924 217.785 321.275C217.703 321.615 217.562 321.873 217.363 322.049C217.176 322.225 216.895 322.377 216.52 322.506C217.223 322.752 217.621 323.045 217.715 323.385C217.855 323.947 217.926 325.219 217.926 327.199V328.342ZM262.205 331.33C261.139 332.736 259.539 333.439 257.406 333.439C254.805 333.439 252.854 332.66 251.553 331.102C250.99 330.434 250.604 329.689 250.393 328.869C250.275 328.377 250.07 328.002 249.777 327.744C249.484 327.475 249.121 327.234 248.688 327.023C249.531 326.637 250.135 325.91 250.498 324.844C250.885 323.719 251.529 322.904 252.432 322.4C253.404 321.873 254.477 321.598 255.648 321.574C256.82 321.539 257.688 321.498 258.25 321.451C258.812 321.404 259.311 321.328 259.744 321.223C260.553 321.035 261.186 320.689 261.643 320.186V317.549C261.643 316.389 261.402 315.539 260.922 315C260.453 314.461 259.732 314.191 258.76 314.191C257.799 314.191 257.084 314.373 256.615 314.736C256.158 315.088 255.93 315.562 255.93 316.16C255.93 317.074 256.398 317.52 257.336 317.496C257.148 318.41 256.656 318.867 255.859 318.867C255.625 318.867 255.396 318.826 255.174 318.744V318.797C255.174 319.102 255.314 319.295 255.596 319.377C255.303 319.822 254.811 320.039 254.119 320.027C253.428 320.016 252.889 319.646 252.502 318.92C252.326 318.967 252.121 318.99 251.887 318.99C251.664 318.99 251.412 318.914 251.131 318.762C250.861 318.609 250.645 318.398 250.48 318.129C251.066 317.777 251.424 317.232 251.553 316.494C251.693 315.592 252.414 314.678 253.715 313.752C255.285 312.639 257.289 312.082 259.727 312.082C263.77 312.082 266.236 313.324 267.127 315.809C267.42 316.641 267.566 317.625 267.566 318.762V320.186C267.566 320.76 267.707 321.229 267.988 321.592C268.281 321.955 268.773 322.254 269.465 322.488C268.727 322.828 268.252 323.133 268.041 323.402C267.725 323.812 267.566 324.281 267.566 324.809V330.082C267.906 330.961 268.393 331.4 269.025 331.4C269.424 331.4 269.752 331.301 270.01 331.102C270.174 331.324 270.256 331.605 270.256 331.945C270.256 332.273 270.086 332.59 269.746 332.895C269.418 333.199 268.92 333.352 268.252 333.352C267.584 333.352 266.963 333.164 266.389 332.789C265.885 333.164 265.434 333.352 265.035 333.352C264.648 333.352 264.309 333.311 264.016 333.229C263.734 333.158 263.471 333.041 263.225 332.877C262.674 332.514 262.334 331.998 262.205 331.33ZM263.312 328.342C263.992 328.072 264.35 326.777 264.385 324.457C264.385 323.965 264.385 323.402 264.385 322.77C264.385 322.137 264.379 321.598 264.367 321.152C264.367 320.695 264.361 320.262 264.35 319.852C264.303 318.375 264.168 317.496 263.945 317.215C263.723 316.922 263.512 316.729 263.312 316.635V328.342ZM256.826 327.094C256.826 327.586 256.879 328.066 256.984 328.535C257.09 329.004 257.248 329.414 257.459 329.766C257.928 330.504 258.59 330.873 259.445 330.873C260.09 330.873 260.623 330.609 261.045 330.082C261.443 329.566 261.643 328.904 261.643 328.096V322.365C260.893 322.799 259.932 323.098 258.76 323.262C257.471 323.461 256.826 324.738 256.826 327.094ZM254.189 331.049C254.307 330.967 254.365 330.861 254.365 330.732C254.365 330.557 254.283 330.311 254.119 329.994C253.533 328.916 253.24 328.031 253.24 327.34C253.24 326.648 253.264 326.15 253.311 325.846C253.369 325.541 253.439 325.283 253.521 325.072C253.615 324.85 253.715 324.656 253.82 324.492C253.938 324.328 254.037 324.182 254.119 324.053C254.271 323.783 254.348 323.602 254.348 323.508C254.348 323.402 254.295 323.314 254.189 323.244C253.709 323.467 253.357 323.73 253.135 324.035C252.736 324.574 252.443 325.271 252.256 326.127C252.209 326.373 251.799 326.672 251.025 327.023C251.775 327.363 252.186 327.662 252.256 327.92C252.654 329.314 253.299 330.357 254.189 331.049ZM274.686 333.686C273.842 332.912 273.42 331.951 273.42 330.803C273.42 329.092 274.434 327.686 276.461 326.584C275.137 325.658 274.17 324.193 273.561 322.189C273.361 321.568 273.162 321.146 272.963 320.924C272.67 320.572 272.166 320.221 271.451 319.869C272.037 319.6 272.482 319.254 272.787 318.832C273.104 318.41 273.373 317.859 273.596 317.18C273.83 316.5 274.152 315.85 274.562 315.229C274.984 314.607 275.523 314.062 276.18 313.594C277.621 312.586 279.479 312.082 281.752 312.082C282.479 312.082 283.234 312.158 284.02 312.311C284.184 311.033 284.752 309.949 285.725 309.059C286.686 308.156 287.811 307.705 289.1 307.705C290.611 307.705 291.883 308.098 292.914 308.883C293.477 309.305 294.039 309.463 294.602 309.357C294.648 310.295 294.285 310.898 293.512 311.168C293.383 312.75 292.697 313.541 291.455 313.541C290.963 313.541 290.664 313.506 290.559 313.436C290.734 313.283 290.822 313.09 290.822 312.855C290.822 312.609 290.723 312.398 290.523 312.223C290.277 312.68 289.727 312.908 288.871 312.908C288.402 312.908 288.033 312.686 287.764 312.24C288.209 312.1 288.561 311.889 288.818 311.607C289.076 311.314 289.205 311.045 289.205 310.799C289.205 310.154 288.865 309.832 288.186 309.832C286.873 309.832 286.105 310.852 285.883 312.891C288.016 313.805 289.375 315.24 289.961 317.197C290.348 318.521 291.062 319.412 292.105 319.869C291.191 320.326 290.588 320.836 290.295 321.398C290.178 321.621 290.072 321.885 289.979 322.189C289.346 324.182 288.355 325.652 287.008 326.602C285.66 327.539 283.926 328.008 281.805 328.008C280.457 328.008 279.285 327.844 278.289 327.516C277.902 327.762 277.709 328.037 277.709 328.342C277.709 328.635 277.768 328.887 277.885 329.098C278.002 329.297 278.213 329.479 278.518 329.643C279.115 329.959 280.252 330.24 281.928 330.486C282.689 330.639 283.475 330.146 284.283 329.01C284.33 329.607 284.465 330.059 284.688 330.363C284.91 330.656 285.156 330.82 285.426 330.855C288.66 331.336 290.752 332.391 291.701 334.02C292.029 334.57 292.193 335.273 292.193 336.129C292.193 336.996 291.918 337.834 291.367 338.643C290.816 339.463 290.072 340.16 289.135 340.734C287.189 341.906 284.799 342.492 281.963 342.492C278.635 342.492 276.092 341.947 274.334 340.857C272.822 339.908 272.066 338.695 272.066 337.219C272.066 336.234 272.564 335.303 273.561 334.424C273.889 334.143 274.264 333.896 274.686 333.686ZM280.1 324.809C280.357 325.172 280.615 325.406 280.873 325.512C281.131 325.605 281.43 325.652 281.77 325.652C282.121 325.652 282.426 325.605 282.684 325.512C282.941 325.406 283.158 325.23 283.334 324.984C283.674 324.504 283.844 323.695 283.844 322.559V317.689C283.844 316.553 283.715 315.803 283.457 315.439C283.199 315.076 282.941 314.848 282.684 314.754C282.426 314.648 282.121 314.596 281.77 314.596C281.43 314.596 281.131 314.648 280.873 314.754C280.615 314.848 280.404 315.012 280.24 315.246C279.889 315.738 279.713 316.553 279.713 317.689V322.559C279.713 323.695 279.842 324.445 280.1 324.809ZM285.549 324.686C286.088 324.498 286.398 323.918 286.48 322.945C286.562 322.031 286.604 321.006 286.604 319.869C286.604 318.111 286.557 316.986 286.463 316.494C286.322 315.838 286.018 315.41 285.549 315.211V324.686ZM276.391 324.686C276.625 324.51 276.742 324.305 276.742 324.07C276.742 323.766 276.701 323.473 276.619 323.191C276.303 322.113 276.145 321.006 276.145 319.869C276.145 318.744 276.303 317.643 276.619 316.564C276.701 316.283 276.742 316.061 276.742 315.896V315.475C276.742 315.369 276.695 315.281 276.602 315.211C276.121 315.797 275.77 316.465 275.547 317.215C275.336 317.965 275.166 318.627 275.037 319.201C274.99 319.377 274.662 319.6 274.053 319.869C274.674 320.174 275.002 320.402 275.037 320.555L275.389 322.031C275.693 323.273 276.027 324.158 276.391 324.686ZM275.494 330.943C275.389 331.049 275.336 331.201 275.336 331.4C275.383 332.666 277.188 333.621 280.75 334.266C281.16 334.359 281.453 334.805 281.629 335.602C281.688 335.344 281.916 335.127 282.314 334.951C282.725 334.787 283 334.711 283.141 334.723C284.91 334.934 286.105 335.133 286.727 335.32C287.828 335.66 288.631 336.164 289.135 336.832C289.275 336.668 289.346 336.457 289.346 336.199C289.346 335.941 289.217 335.678 288.959 335.408C288.701 335.15 288.279 334.922 287.693 334.723C286.686 334.359 285.32 334.078 283.598 333.879C281.875 333.68 280.662 333.504 279.959 333.352C279.268 333.199 278.629 333.012 278.043 332.789C276.766 332.285 275.916 331.67 275.494 330.943ZM276.443 334.811C275.611 335.174 275.195 335.854 275.195 336.85C275.195 337.646 275.799 338.367 277.006 339.012C278.354 339.738 280.094 340.102 282.227 340.102C284.852 340.102 286.557 339.65 287.342 338.748C287.564 338.502 287.676 338.238 287.676 337.957C287.676 337.688 287.541 337.447 287.271 337.236C287.014 337.025 286.674 336.855 286.252 336.727C285.631 336.516 284.652 336.334 283.316 336.182C282.672 336.111 281.875 336.586 280.926 337.605C280.926 336.949 280.814 336.475 280.592 336.182C280.381 335.889 280.17 335.73 279.959 335.707C278.6 335.531 277.428 335.232 276.443 334.811ZM309.402 327.691C309.66 327.199 310.135 326.953 310.826 326.953C311.295 326.953 311.658 327.146 311.916 327.533C312.127 327.838 312.232 328.213 312.232 328.658C312.232 329.092 312.121 329.531 311.898 329.977C311.676 330.422 311.371 330.826 310.984 331.189C310.598 331.553 310.152 331.875 309.648 332.156C309.156 332.438 308.629 332.672 308.066 332.859C306.906 333.246 305.699 333.439 304.445 333.439C303.191 333.439 302.014 333.234 300.912 332.824C299.822 332.402 298.885 331.816 298.1 331.066C296.564 329.59 295.627 327.562 295.287 324.984C295.205 324.41 295.07 324 294.883 323.754C294.531 323.32 293.951 322.904 293.143 322.506C294.162 322.049 294.812 321.316 295.094 320.309C295.176 320.027 295.24 319.746 295.287 319.465C295.58 317.402 296.623 315.645 298.416 314.191C300.15 312.785 302.09 312.082 304.234 312.082C306.461 312.082 308.389 312.867 310.018 314.438C311.705 316.055 312.549 318.041 312.549 320.396C312.549 320.479 312.543 320.561 312.531 320.643C312.531 320.725 312.537 320.801 312.549 320.871C312.572 321.023 312.666 321.111 312.83 321.135C313.041 321.404 313.146 321.691 313.146 321.996C313.146 322.699 312.771 323.115 312.021 323.244C311.834 323.279 311.541 323.326 311.143 323.385L301.229 324.967V326.654C301.229 328.014 301.639 329.092 302.459 329.889C303.232 330.65 304.211 331.031 305.395 331.031C306.648 331.031 307.656 330.773 308.418 330.258C309.133 329.766 309.49 329.121 309.49 328.324C309.49 328.137 309.461 327.926 309.402 327.691ZM306.326 322.014V317.092C306.326 316.318 306.174 315.75 305.869 315.387C305.33 314.766 304.797 314.455 304.27 314.455C303.742 314.455 303.303 314.537 302.951 314.701C302.6 314.854 302.295 315.1 302.037 315.439C301.498 316.154 301.229 317.268 301.229 318.779V322.84L306.326 322.014ZM308.928 321.574V321.029C308.928 318.85 308.746 317.531 308.383 317.074C308.219 316.875 308.037 316.729 307.838 316.635V321.75L308.928 321.574ZM298.363 328.342C298.527 328.213 298.609 328.066 298.609 327.902C298.609 327.645 298.557 327.316 298.451 326.918C297.971 325.078 297.73 323.801 297.73 323.086C297.73 322.359 297.754 321.797 297.801 321.398C297.848 320.988 297.912 320.578 297.994 320.168C298.135 319.371 298.287 318.668 298.451 318.059C298.557 317.66 298.609 317.391 298.609 317.25C298.609 316.969 298.527 316.764 298.363 316.635C297.871 317.221 297.496 318.006 297.238 318.99C296.98 319.975 296.77 320.842 296.605 321.592C296.547 321.908 296.201 322.213 295.568 322.506C296.201 322.799 296.547 323.092 296.605 323.385C297.039 325.365 297.396 326.625 297.678 327.164C297.959 327.703 298.188 328.096 298.363 328.342Z" fill="#F0F1F1"/>
<path d="M172.5 237.5V187.5H210L160 125L110 187.5H147.5V237.5H172.5Z" fill="#F0F1F1"/>
<path d="M97.5 237.5H122.5V212.5H97.5C76.825 212.5 60 195.675 60 175C60 157.45 74.9875 140.55 93.4125 137.313L100.675 136.038L103.075 129.063C111.863 103.425 133.688 87.5 160 87.5C194.463 87.5 222.5 115.538 222.5 150V162.5H235C248.788 162.5 260 173.713 260 187.5C260 201.288 248.788 212.5 235 212.5H197.5V237.5H235C262.575 237.5 285 215.075 285 187.5C284.981 176.295 281.208 165.42 274.284 156.61C267.359 147.801 257.683 141.566 246.8 138.9C241.338 95.875 204.5 62.5 160 62.5C125.55 62.5 95.625 82.6375 81.9625 114.375C55.1125 122.4 35 147.75 35 175C35 209.463 63.0375 237.5 97.5 237.5Z" fill="#F0F1F1"/>
</svg>
